<svg width="42" height="38" viewBox="0 0 42 38" fill="none" xmlns="http://www.w3.org/2000/svg">
                      <path d="M37.928 18.9982H31.4175V13.7899C31.4175 10.9172 33.7532 8.58154 36.6259 8.58154H37.2769C38.3593 8.58154 39.23 7.71077 39.23 6.62842V2.72217C39.23 1.63981 38.3593 0.769043 37.2769 0.769043H36.6259C29.4319 0.769043 23.605 6.59587 23.605 13.7899V33.3211C23.605 35.4777 25.3547 37.2274 27.5113 37.2274H37.928C40.0845 37.2274 41.8342 35.4777 41.8342 33.3211V22.9045C41.8342 20.7479 40.0845 18.9982 37.928 18.9982ZM14.4905 18.9982H7.98004V13.7899C7.98004 10.9172 10.3157 8.58154 13.1884 8.58154H13.8394C14.9218 8.58154 15.7925 7.71077 15.7925 6.62842V2.72217C15.7925 1.63981 14.9218 0.769043 13.8394 0.769043H13.1884C5.99436 0.769043 0.167542 6.59587 0.167542 13.7899V33.3211C0.167542 35.4777 1.91722 37.2274 4.07379 37.2274H14.4905C16.647 37.2274 18.3967 35.4777 18.3967 33.3211V22.9045C18.3967 20.7479 16.647 18.9982 14.4905 18.9982Z" fill="white"></path>
                    </svg>